<?xml version="1.0" encoding="UTF-8"?>
<svg id="Layer_1" xmlns="http://www.w3.org/2000/svg" version="1.1" viewBox="0 0 32 30">
  <!-- Generator: Adobe Illustrator 29.6.0, SVG Export Plug-In . SVG Version: 2.1.1 Build 207)  -->
  <path d="M27.25,12.76c-1.28-1.05-2.76-1.57-4.42-1.57h-2.56c-1.67,0-3.14.52-4.42,1.57-.03.02-.05.04-.08.06-.03-.02-.05-.04-.08-.06-1.28-1.05-2.76-1.57-4.42-1.57h-2.56c-1.67,0-3.14.52-4.42,1.57-1.28,1.05-1.92,2.35-1.92,3.92v1.52c0,1.57.64,2.87,1.92,3.92,1.28,1.05,2.76,1.57,4.42,1.57h2.56c1.67,0,3.14-.52,4.42-1.57.03-.02.05-.04.08-.06.03.02.05.04.08.06,1.28,1.05,2.76,1.57,4.42,1.57h2.56c1.67,0,3.14-.52,4.42-1.57,1.28-1.05,1.92-2.35,1.92-3.92v-1.52c0-1.57-.64-2.87-1.92-3.92h0ZM25.48,17.81c0,.93-.27,1.64-.8,2.12s-1.28.72-2.23.72h-1.8c-.96,0-1.7-.24-2.23-.72-.44-.39-.69-.94-.77-1.64h-3.75c-.08.7-.33,1.25-.77,1.64-.53.48-1.28.72-2.23.72h-1.8c-.96,0-1.7-.24-2.23-.72-.53-.48-.8-1.19-.8-2.12v-.76c0-.93.27-1.64.8-2.12.53-.48,1.27-.72,2.23-.72h1.8c.96,0,1.7.24,2.23.72.44.39.69.94.77,1.64h3.75c.08-.7.33-1.25.77-1.64.53-.48,1.27-.72,2.23-.72h1.8c.96,0,1.7.24,2.23.72.53.48.8,1.19.8,2.12v.76Z"/>
</svg>