<?xml version="1.0" standalone="no"?>
<!DOCTYPE svg PUBLIC "-//W3C//DTD SVG 20010904//EN"
 "http://www.w3.org/TR/2001/REC-SVG-20010904/DTD/svg10.dtd">
<svg version="1.0" xmlns="http://www.w3.org/2000/svg"
 width="513.000000pt" height="513.000000pt" viewBox="0 0 513.000000 513.000000"
 preserveAspectRatio="xMidYMid meet">

<g transform="translate(0.000000,513.000000) scale(0.100000,-0.100000)"
fill="#000000" stroke="none">
<path d="M1074 3759 c-171 -16 -365 -77 -510 -161 -283 -162 -462 -377 -536
-643 -21 -75 -22 -100 -22 -385 0 -346 6 -384 85 -549 118 -249 372 -464 672
-570 199 -70 249 -75 687 -76 335 0 409 3 487 17 202 39 384 116 540 229 47
34 88 57 95 53 6 -4 45 -32 87 -62 146 -105 335 -184 525 -220 134 -25 828
-25 962 0 278 53 500 171 699 372 151 152 219 276 259 469 23 109 23 565 0
675 -36 176 -112 317 -244 456 -194 202 -431 329 -715 382 -87 16 -151 19
-480 19 -329 0 -393 -3 -480 -19 -220 -41 -399 -121 -592 -265 l-32 -24 -68
50 c-199 146 -412 227 -662 253 -117 11 -634 11 -757 -1z m733 -595 c207 -42
345 -176 384 -368 l13 -66 357 0 357 0 16 71 c43 191 179 321 382 364 98 21
600 21 698 0 205 -43 350 -184 386 -374 13 -70 13 -373 0 -442 -15 -81 -71
-187 -126 -242 -59 -59 -164 -112 -259 -132 -99 -21 -601 -21 -699 0 -203 43
-339 173 -382 364 l-16 71 -357 0 -357 0 -12 -62 c-35 -190 -174 -326 -379
-372 -100 -22 -604 -23 -708 -1 -99 21 -190 69 -256 134 -106 106 -139 216
-139 461 0 245 33 355 139 461 65 64 156 113 251 133 98 22 604 21 707 0z"/>
</g>
</svg>
